<?xml version="1.0" encoding="UTF-8"?>
<svg width="15px" height="11px" viewBox="0 0 15 11" version="1.1" xmlns="http://www.w3.org/2000/svg" xmlns:xlink="http://www.w3.org/1999/xlink">
    <!-- Generator: Sketch 42 (36781) - http://www.bohemiancoding.com/sketch -->
    <title>arrowRight</title>
    <desc>Created with Sketch.</desc>
    <defs></defs>
    <g id="Page-1" stroke="none" stroke-width="1" fill="none" fill-rule="evenodd">
        <g id="Desktop" transform="translate(-546.000000, -294.000000)" fill-rule="nonzero" fill="#FFFFFF">
            <g id="visit-BTN" transform="translate(451.000000, 281.000000)">
                <path d="M109.277499,18.6524757 C109.318791,18.5494135 109.318791,18.4332573 109.277499,18.3297728 C109.256649,18.2778193 109.226396,18.2309344 109.188784,18.1916525 L104.283257,13.1238647 C104.123405,12.9587118 103.865026,12.9587118 103.705174,13.1238647 C103.545322,13.2890177 103.545322,13.5559656 103.705174,13.7211186 L107.913241,18.0687382 L95.408828,18.0687382 C95.1831549,18.0687382 95,18.2575447 95,18.4911242 C95,18.7247037 95.1831549,18.9135103 95.408828,18.9135103 L107.913241,18.9135103 L103.705174,23.2611299 C103.545322,23.4262828 103.545322,23.6932308 103.705174,23.8583837 C103.784896,23.940749 103.889556,23.9821429 103.994216,23.9821429 C104.098875,23.9821429 104.203535,23.940749 104.283257,23.8583837 L109.188784,18.7901735 C109.226396,18.751314 109.256649,18.7044292 109.277499,18.6524757 Z" id="arrowRight"></path>
            </g>
        </g>
    </g>
</svg>