<?xml version="1.0" encoding="UTF-8"?>
<svg width="149px" height="36px" viewBox="0 0 149 36" version="1.1" xmlns="http://www.w3.org/2000/svg" xmlns:xlink="http://www.w3.org/1999/xlink">
    <!-- Generator: Sketch 43.2 (39069) - http://www.bohemiancoding.com/sketch -->
    <title>logo-h</title>
    <desc>Created with Sketch.</desc>
    <defs></defs>
    <g id="index-copy" stroke="none" stroke-width="1" fill="none" fill-rule="evenodd">
        <g id="logo-h">
            <path d="M49.0936661,17.99038 C49.0936661,16.9420548 49.2482246,15.9575846 49.5573461,15.03694 C49.8664677,14.1162954 50.3133432,13.3166234 50.8979861,12.6379 C51.482629,11.9591766 52.2016618,11.4249419 53.0551061,11.03518 C53.9085504,10.6454181 54.8728607,10.45054 55.9480661,10.45054 C56.7947903,10.45054 57.527263,10.5614189 58.1455061,10.78318 C58.7637492,11.0049411 59.284544,11.2804584 59.7079061,11.60974 C60.1312682,11.9390216 60.4773448,12.2985381 60.7461461,12.6883 C61.0149475,13.0780619 61.2199054,13.4442983 61.3610261,13.78702 C61.5021468,14.1297417 61.5995858,14.4254188 61.6533461,14.67406 C61.7071064,14.9227012 61.7339861,15.0604599 61.7339861,15.08734 L60.8469461,15.08734 C60.7528656,14.482537 60.5579876,13.9415824 60.2623061,13.46446 C59.9666246,12.9873376 59.5970283,12.5807817 59.1535061,12.24478 C58.7099839,11.9087783 58.2160688,11.6534209 57.6717461,11.4787 C57.1274234,11.3039791 56.5528691,11.21662 55.9480661,11.21662 C55.0072614,11.21662 54.1672698,11.3980582 53.4280661,11.76094 C52.6888624,12.1238218 52.0639087,12.6110169 51.5531861,13.22254 C51.0424636,13.8340631 50.6527075,14.5497359 50.3839061,15.36958 C50.1151048,16.1894241 49.9807061,17.0630154 49.9807061,17.99038 C49.9807061,18.9177446 50.1151048,19.7913359 50.3839061,20.61118 C50.6527075,21.4310241 51.0424636,22.1466969 51.5531861,22.75822 C52.0639087,23.3697431 52.6888624,23.8569382 53.4280661,24.21982 C54.1672698,24.5827018 55.0072614,24.76414 55.9480661,24.76414 C56.6469496,24.76414 57.3021431,24.6196614 57.9136661,24.3307 C58.5251892,24.0417386 59.0594238,23.6587024 59.5163861,23.18158 C59.9733484,22.7044576 60.3395847,22.1534231 60.6151061,21.52846 C60.8906275,20.9034969 61.0485459,20.2550234 61.0888661,19.58302 L61.9759061,19.58302 C61.8952657,20.4431843 61.6835878,21.2361364 61.3408661,21.9619 C60.9981444,22.6876636 60.5613488,23.3159773 60.0304661,23.84686 C59.4995835,24.3777427 58.8847096,24.7910185 58.1858261,25.0867 C57.4869426,25.3823815 56.7410301,25.53022 55.9480661,25.53022 C54.8728607,25.53022 53.9085504,25.3353419 53.0551061,24.94558 C52.2016618,24.5558181 51.482629,24.0215834 50.8979861,23.34286 C50.3133432,22.6641366 49.8664677,21.8644646 49.5573461,20.94382 C49.2482246,20.0231754 49.0936661,19.0387052 49.0936661,17.99038 Z M63.3467861,10.79326 L64.2338261,10.79326 L64.2338261,17.3251 L73.4267861,17.3251 L73.4267861,10.79326 L74.3138261,10.79326 L74.3138261,25.1875 L73.4267861,25.1875 L73.4267861,18.09118 L64.2338261,18.09118 L64.2338261,25.1875 L63.3467861,25.1875 L63.3467861,10.79326 Z M76.3701461,10.79326 L82.3778261,10.79326 C83.0095093,10.79326 83.6008634,10.8570994 84.1519061,10.98478 C84.7029489,11.1124606 85.186784,11.3207786 85.6034261,11.60974 C86.0200682,11.8987014 86.345985,12.2783776 86.5811861,12.74878 C86.8163873,13.2191824 86.9339861,13.8038165 86.9339861,14.5027 C86.9339861,15.4703848 86.6618289,16.2868567 86.1175061,16.95214 C85.5731834,17.6174233 84.817191,18.0306992 83.8495061,18.19198 L83.8495061,18.2323 C84.5080694,18.3129404 85.0288642,18.4876587 85.4119061,18.75646 C85.794948,19.0252613 86.0805452,19.3545381 86.2687061,19.7443 C86.4568671,20.1340619 86.5778259,20.5641376 86.6315861,21.03454 C86.6853464,21.5049424 86.7122261,21.9753376 86.7122261,22.44574 L86.7122261,23.2723 C86.7122261,23.5411013 86.725666,23.7930988 86.7525461,24.0283 C86.7794263,24.2635012 86.8231058,24.481899 86.8835861,24.6835 C86.9440664,24.885101 87.0280656,25.0530993 87.1355861,25.1875 L86.1477461,25.1875 C85.9595852,24.8514983 85.8554262,24.4583823 85.8352661,24.00814 C85.815106,23.5578977 85.8050261,23.0908624 85.8050261,22.60702 C85.8050261,22.1231776 85.7848663,21.6427024 85.7445461,21.16558 C85.7042259,20.6884576 85.5765472,20.2617419 85.3615061,19.88542 C85.1464651,19.5090981 84.8071084,19.2067011 84.3434261,18.97822 C83.8797438,18.7497389 83.2245504,18.6355 82.3778261,18.6355 L77.2571861,18.6355 L77.2571861,25.1875 L76.3701461,25.1875 L76.3701461,10.79326 Z M82.3778261,17.86942 C82.9019888,17.86942 83.3891839,17.8055806 83.8394261,17.6779 C84.2896684,17.5502194 84.6760645,17.3519813 84.9986261,17.08318 C85.3211877,16.8143787 85.5765452,16.4716621 85.7647061,16.05502 C85.9528671,15.6383779 86.0469461,15.1411029 86.0469461,14.56318 C86.0469461,14.0255773 85.9461471,13.5652619 85.7445461,13.18222 C85.5429451,12.7991781 85.2741478,12.4867012 84.9381461,12.24478 C84.6021445,12.0028588 84.2123883,11.8281405 83.7688661,11.72062 C83.3253439,11.6130995 82.8616686,11.55934 82.3778261,11.55934 L77.2571861,11.55934 L77.2571861,17.86942 L82.3778261,17.86942 Z M88.5871061,10.79326 L89.4741461,10.79326 L89.4741461,25.1875 L88.5871061,25.1875 L88.5871061,10.79326 Z M100.925026,14.9059 C100.898146,14.2876569 100.767107,13.7500623 100.531906,13.2931 C100.296705,12.8361377 99.9775082,12.4531015 99.5743062,12.14398 C99.1711041,11.8348585 98.6906289,11.6030208 98.1328662,11.44846 C97.5751034,11.2938992 96.9669494,11.21662 96.3083862,11.21662 C95.9051841,11.21662 95.4717485,11.2636595 95.0080662,11.35774 C94.5443838,11.4518205 94.1143081,11.6164588 93.7178262,11.85166 C93.3213442,12.0868612 92.9954274,12.402698 92.7400662,12.79918 C92.4847049,13.195662 92.3570262,13.689577 92.3570262,14.28094 C92.3570262,14.8588629 92.4981447,15.3292582 92.7803862,15.69214 C93.0626276,16.0550218 93.4322239,16.3473389 93.8891862,16.5691 C94.3461484,16.7908611 94.8703032,16.9689393 95.4616662,17.10334 C96.0530291,17.2377407 96.6511031,17.3654194 97.2559062,17.48638 C97.8741492,17.6073406 98.4755832,17.7518192 99.0602262,17.91982 C99.6448691,18.0878208 100.169024,18.3162986 100.632706,18.60526 C101.096388,18.8942214 101.469345,19.2705377 101.751586,19.73422 C102.033828,20.1979023 102.174946,20.7791765 102.174946,21.47806 C102.174946,22.2307038 102.013668,22.8623774 101.691106,23.3731 C101.368545,23.8838226 100.961989,24.3004584 100.471426,24.62302 C99.9808637,24.9455816 99.4365491,25.1774193 98.8384662,25.31854 C98.2403832,25.4596607 97.6658289,25.53022 97.1147862,25.53022 C96.2680619,25.53022 95.4751099,25.4395009 94.7359062,25.25806 C93.9967025,25.0766191 93.3515889,24.780942 92.8005462,24.37102 C92.2495034,23.961098 91.8160677,23.4335832 91.5002262,22.78846 C91.1843846,22.1433368 91.0331861,21.3571046 91.0466262,20.42974 L91.9336662,20.42974 C91.893346,21.222704 92.0075848,21.8913373 92.2763862,22.43566 C92.5451875,22.9799827 92.9181438,23.4268583 93.3952662,23.7763 C93.8723885,24.1257417 94.4335029,24.3777392 95.0786262,24.5323 C95.7237494,24.6868608 96.4024626,24.76414 97.1147862,24.76414 C97.5448683,24.76414 98.0051837,24.7103805 98.4957462,24.60286 C98.9863086,24.4953395 99.4365441,24.3139013 99.8464662,24.05854 C100.256388,23.8031787 100.599105,23.4671821 100.874626,23.05054 C101.150148,22.6338979 101.287906,22.1097432 101.287906,21.47806 C101.287906,20.873257 101.146788,20.3793419 100.864546,19.9963 C100.582305,19.6132581 100.209348,19.3041412 99.7456662,19.06894 C99.2819838,18.8337388 98.7578291,18.6455807 98.1731862,18.50446 C97.5885432,18.3633393 96.9871092,18.2323006 96.3688662,18.11134 C95.7640631,17.9903794 95.1659891,17.8492608 94.5746262,17.68798 C93.9832632,17.5266992 93.4591084,17.3083014 93.0021462,17.03278 C92.5451839,16.7572586 92.1755876,16.4011022 91.8933462,15.9643 C91.6111047,15.5274978 91.4699862,14.9663834 91.4699862,14.28094 C91.4699862,13.5954966 91.6144647,13.0075025 91.9034262,12.51694 C92.1923876,12.0263775 92.5687038,11.6299015 93.0323862,11.3275 C93.4960685,11.0250985 94.0168633,10.8033407 94.5947862,10.66222 C95.172709,10.5210993 95.7439033,10.45054 96.3083862,10.45054 C97.0610299,10.45054 97.7632629,10.5345392 98.4151062,10.70254 C99.0669494,10.8705408 99.6381437,11.1326182 100.128706,11.48878 C100.619269,11.8449418 101.012385,12.3052572 101.308066,12.86974 C101.603748,13.4342228 101.771746,14.112936 101.812066,14.9059 L100.925026,14.9059 Z M118.262626,14.9059 C118.235746,14.2876569 118.104707,13.7500623 117.869506,13.2931 C117.634305,12.8361377 117.315108,12.4531015 116.911906,12.14398 C116.508704,11.8348585 116.028229,11.6030208 115.470466,11.44846 C114.912703,11.2938992 114.304549,11.21662 113.645986,11.21662 C113.242784,11.21662 112.809348,11.2636595 112.345666,11.35774 C111.881984,11.4518205 111.451908,11.6164588 111.055426,11.85166 C110.658944,12.0868612 110.333027,12.402698 110.077666,12.79918 C109.822305,13.195662 109.694626,13.689577 109.694626,14.28094 C109.694626,14.8588629 109.835745,15.3292582 110.117986,15.69214 C110.400228,16.0550218 110.769824,16.3473389 111.226786,16.5691 C111.683748,16.7908611 112.207903,16.9689393 112.799266,17.10334 C113.390629,17.2377407 113.988703,17.3654194 114.593506,17.48638 C115.211749,17.6073406 115.813183,17.7518192 116.397826,17.91982 C116.982469,18.0878208 117.506624,18.3162986 117.970306,18.60526 C118.433988,18.8942214 118.806945,19.2705377 119.089186,19.73422 C119.371428,20.1979023 119.512546,20.7791765 119.512546,21.47806 C119.512546,22.2307038 119.351268,22.8623774 119.028706,23.3731 C118.706145,23.8838226 118.299589,24.3004584 117.809026,24.62302 C117.318464,24.9455816 116.774149,25.1774193 116.176066,25.31854 C115.577983,25.4596607 115.003429,25.53022 114.452386,25.53022 C113.605662,25.53022 112.81271,25.4395009 112.073506,25.25806 C111.334302,25.0766191 110.689189,24.780942 110.138146,24.37102 C109.587103,23.961098 109.153668,23.4335832 108.837826,22.78846 C108.521985,22.1433368 108.370786,21.3571046 108.384226,20.42974 L109.271266,20.42974 C109.230946,21.222704 109.345185,21.8913373 109.613986,22.43566 C109.882788,22.9799827 110.255744,23.4268583 110.732866,23.7763 C111.209989,24.1257417 111.771103,24.3777392 112.416226,24.5323 C113.061349,24.6868608 113.740063,24.76414 114.452386,24.76414 C114.882468,24.76414 115.342784,24.7103805 115.833346,24.60286 C116.323909,24.4953395 116.774144,24.3139013 117.184066,24.05854 C117.593988,23.8031787 117.936705,23.4671821 118.212226,23.05054 C118.487748,22.6338979 118.625506,22.1097432 118.625506,21.47806 C118.625506,20.873257 118.484388,20.3793419 118.202146,19.9963 C117.919905,19.6132581 117.546948,19.3041412 117.083266,19.06894 C116.619584,18.8337388 116.095429,18.6455807 115.510786,18.50446 C114.926143,18.3633393 114.324709,18.2323006 113.706466,18.11134 C113.101663,17.9903794 112.503589,17.8492608 111.912226,17.68798 C111.320863,17.5266992 110.796708,17.3083014 110.339746,17.03278 C109.882784,16.7572586 109.513188,16.4011022 109.230946,15.9643 C108.948705,15.5274978 108.807586,14.9663834 108.807586,14.28094 C108.807586,13.5954966 108.952065,13.0075025 109.241026,12.51694 C109.529988,12.0263775 109.906304,11.6299015 110.369986,11.3275 C110.833668,11.0250985 111.354463,10.8033407 111.932386,10.66222 C112.510309,10.5210993 113.081503,10.45054 113.645986,10.45054 C114.39863,10.45054 115.100863,10.5345392 115.752706,10.70254 C116.404549,10.8705408 116.975744,11.1326182 117.466306,11.48878 C117.956869,11.8449418 118.349985,12.3052572 118.645666,12.86974 C118.941348,13.4342228 119.109346,14.112936 119.149666,14.9059 L118.262626,14.9059 Z M121.085026,10.79326 L121.972066,10.79326 L121.972066,17.3251 L131.165026,17.3251 L131.165026,10.79326 L132.052066,10.79326 L132.052066,25.1875 L131.165026,25.1875 L131.165026,18.09118 L121.972066,18.09118 L121.972066,25.1875 L121.085026,25.1875 L121.085026,10.79326 Z M134.108386,10.79326 L134.995426,10.79326 L134.995426,25.1875 L134.108386,25.1875 L134.108386,10.79326 Z M137.051746,10.79326 L137.938786,10.79326 L137.938786,17.3251 L147.131746,17.3251 L147.131746,10.79326 L148.018786,10.79326 L148.018786,25.1875 L147.131746,25.1875 L147.131746,18.09118 L137.938786,18.09118 L137.938786,25.1875 L137.051746,25.1875 L137.051746,10.79326 Z" id="CHRIS-SHIH" fill="#000000"></path>
            <g id="logo-icon">
                <ellipse id="Oval" fill="#000000" cx="17.924812" cy="18" rx="17.924812" ry="18"></ellipse>
                <path d="M8.00728718,18.4399 C8.00728718,17.5662956 8.13608589,16.7459038 8.39368718,15.9787 C8.65128846,15.2114962 9.02368474,14.5451028 9.51088718,13.9795 C9.99808961,13.4138972 10.5972836,12.9687016 11.3084872,12.6439 C12.0196907,12.3190984 12.8232827,12.1567 13.7192872,12.1567 C14.4248907,12.1567 15.0352846,12.2490991 15.5504872,12.4339 C16.0656898,12.6187009 16.4996854,12.8482986 16.8524872,13.1227 C17.2052889,13.3971014 17.4936861,13.6966984 17.7176872,14.0215 C17.9416883,14.3463016 18.1124866,14.6514986 18.2300872,14.9371 C18.3476878,15.2227014 18.428887,15.469099 18.4736872,15.6763 C18.5184874,15.883501 18.5408872,15.9982999 18.5408872,16.0207 L17.8016872,16.0207 C17.7232868,15.5166975 17.5608884,15.065902 17.3144872,14.6683 C17.0680859,14.270698 16.760089,13.9319014 16.3904872,13.6519 C16.0208853,13.3718986 15.6092894,13.1591007 15.1556872,13.0135 C14.7020849,12.8678993 14.2232897,12.7951 13.7192872,12.7951 C12.9352833,12.7951 12.2352903,12.9462985 11.6192872,13.2487 C11.0032841,13.5511015 10.4824893,13.9570975 10.0568872,14.4667 C9.63128505,14.9763025 9.3064883,15.5726966 9.08248718,16.2559 C8.85848606,16.9391034 8.74648718,17.6670961 8.74648718,18.4399 C8.74648718,19.2127039 8.85848606,19.9406966 9.08248718,20.6239 C9.3064883,21.3071034 9.63128505,21.9034975 10.0568872,22.4131 C10.4824893,22.9227025 11.0032841,23.3286985 11.6192872,23.6311 C12.2352903,23.9335015 12.9352833,24.0847 13.7192872,24.0847 C14.3016901,24.0847 14.8476846,23.9643012 15.3572872,23.7235 C15.8668897,23.4826988 16.3120853,23.163502 16.6928872,22.7659 C17.0736891,22.368298 17.378886,21.9091026 17.6084872,21.3883 C17.8380883,20.8674974 17.969687,20.3271028 18.0032872,19.7671 L18.7424872,19.7671 C18.6752868,20.4839036 18.4988886,21.144697 18.2132872,21.7495 C17.9276857,22.354303 17.5636894,22.8778978 17.1212872,23.3203 C16.678885,23.7627022 16.1664901,24.1070988 15.5840872,24.3535 C15.0016843,24.5999012 14.3800905,24.7231 13.7192872,24.7231 C12.8232827,24.7231 12.0196907,24.5607016 11.3084872,24.2359 C10.5972836,23.9110984 9.99808961,23.4659028 9.51088718,22.9003 C9.02368474,22.3346972 8.65128846,21.6683038 8.39368718,20.9011 C8.13608589,20.1338962 8.00728718,19.3135044 8.00728718,18.4399 Z M27.7136872,15.8695 C27.6912871,15.3542974 27.5820882,14.9063019 27.3860872,14.5255 C27.1900862,14.1446981 26.9240889,13.8255013 26.5880872,13.5679 C26.2520855,13.3102987 25.8516895,13.1171006 25.3868872,12.9883 C24.9220849,12.8594994 24.41529,12.7951 23.8664872,12.7951 C23.5304855,12.7951 23.1692892,12.8342996 22.7828872,12.9127 C22.3964853,12.9911004 22.0380889,13.128299 21.7076872,13.3243 C21.3772856,13.520301 21.1056883,13.7834983 20.8928872,14.1139 C20.6800862,14.4443017 20.5736872,14.8558975 20.5736872,15.3487 C20.5736872,15.8303024 20.691286,16.2222985 20.9264872,16.5247 C21.1616884,16.8271015 21.4696853,17.0706991 21.8504872,17.2555 C22.2312891,17.4403009 22.6680848,17.5886994 23.1608872,17.7007 C23.6536897,17.8127006 24.1520847,17.9190995 24.6560872,18.0199 C25.1712898,18.1207005 25.6724848,18.2410993 26.1596872,18.3811 C26.6468897,18.5211007 27.0836853,18.7114988 27.4700872,18.9523 C27.8564892,19.1931012 28.167286,19.5066981 28.4024872,19.8931 C28.6376884,20.2795019 28.7552872,20.7638971 28.7552872,21.3463 C28.7552872,21.9735031 28.6208886,22.4998979 28.3520872,22.9255 C28.0832859,23.3511021 27.7444893,23.6982987 27.3356872,23.9671 C26.9268852,24.2359013 26.4732897,24.4290994 25.9748872,24.5467 C25.4764847,24.6643006 24.9976895,24.7231 24.5384872,24.7231 C23.8328837,24.7231 23.1720903,24.6475008 22.5560872,24.4963 C21.9400841,24.3450992 21.4024895,24.0987017 20.9432872,23.7571 C20.4840849,23.4154983 20.1228885,22.9759027 19.8596872,22.4383 C19.5964859,21.9006973 19.4704872,21.2455039 19.4816872,20.4727 L20.2208872,20.4727 C20.1872871,21.1335033 20.2824861,21.6906977 20.5064872,22.1443 C20.7304883,22.5979023 21.0412852,22.9702985 21.4388872,23.2615 C21.8364892,23.5527015 22.3040845,23.7626994 22.8416872,23.8915 C23.3792899,24.0203006 23.9448843,24.0847 24.5384872,24.0847 C24.896889,24.0847 25.2804852,24.0399004 25.6892872,23.9503 C26.0980893,23.8606996 26.4732855,23.7095011 26.8148872,23.4967 C27.1564889,23.2838989 27.4420861,23.0039017 27.6716872,22.6567 C27.9012884,22.3094983 28.0160872,21.8727026 28.0160872,21.3463 C28.0160872,20.8422975 27.8984884,20.4307016 27.6632872,20.1115 C27.428086,19.7922984 27.1172892,19.534701 26.7308872,19.3387 C26.3444853,19.142699 25.9076897,18.9859006 25.4204872,18.8683 C24.9332848,18.7506994 24.4320898,18.6415005 23.9168872,18.5407 C23.4128847,18.4398995 22.9144897,18.3223007 22.4216872,18.1879 C21.9288848,18.0534993 21.4920891,17.8715011 21.1112872,17.6419 C20.7304853,17.4122989 20.4224884,17.1155018 20.1872872,16.7515 C19.952086,16.3874982 19.8344872,15.9199029 19.8344872,15.3487 C19.8344872,14.7774971 19.954886,14.287502 20.1956872,13.8787 C20.4364884,13.469898 20.7500853,13.1395013 21.1364872,12.8875 C21.5228892,12.6354987 21.9568848,12.4507006 22.4384872,12.3331 C22.9200896,12.2154994 23.3960849,12.1567 23.8664872,12.1567 C24.4936904,12.1567 25.0788845,12.2266993 25.6220872,12.3667 C26.1652899,12.5067007 26.6412852,12.7250985 27.0500872,13.0219 C27.4588893,13.3187015 27.786486,13.7022976 28.0328872,14.1727 C28.2792885,14.6431024 28.4192871,15.2086967 28.4528872,15.8695 L27.7136872,15.8695 Z" id="CS" fill="#FFFFFF"></path>
            </g>
        </g>
    </g>
</svg>