<?xml version="1.0" encoding="UTF-8"?>
<svg width="178px" height="106px" viewBox="0 0 178 106" version="1.1" xmlns="http://www.w3.org/2000/svg" xmlns:xlink="http://www.w3.org/1999/xlink">
    <!-- Generator: Sketch 43.1 (39012) - http://www.bohemiancoding.com/sketch -->
    <title>logo</title>
    <desc>Created with Sketch.</desc>
    <defs></defs>
    <g id="index-copy" stroke="none" stroke-width="1" fill="none" fill-rule="evenodd">
        <g id="logo">
            <path d="M0.619999814,92.148 C0.619999814,90.2759906 0.895997054,88.5180082 1.44799981,86.874 C2.00000257,85.2299918 2.79799459,83.8020061 3.84199981,82.59 C4.88600503,81.3779939 6.16999219,80.4240035 7.69399981,79.728 C9.21800743,79.0319965 10.9399902,78.684 12.8599998,78.684 C14.3720074,78.684 15.6799943,78.881998 16.7839998,79.278 C17.8880053,79.674002 18.817996,80.1659971 19.5739998,80.754 C20.3300036,81.3420029 20.9479974,81.9839965 21.4279998,82.68 C21.9080022,83.3760035 22.2739986,84.0299969 22.5259998,84.642 C22.7780011,85.2540031 22.9519993,85.7819978 23.0479998,86.226 C23.1440003,86.6700022 23.1919998,86.9159998 23.1919998,86.964 L21.6079998,86.964 C21.439999,85.8839946 21.0920025,84.9180043 20.5639998,84.066 C20.0359972,83.2139957 19.3760038,82.488003 18.5839998,81.888 C17.7919959,81.287997 16.9100047,80.8320016 15.9379998,80.52 C14.965995,80.2079984 13.9400052,80.052 12.8599998,80.052 C11.1799914,80.052 9.68000641,80.3759968 8.35999981,81.024 C7.03999321,81.6720032 5.92400437,82.5419945 5.01199981,83.634 C4.09999525,84.7260055 3.40400221,86.0039927 2.92399981,87.468 C2.44399741,88.9320073 2.20399981,90.4919917 2.20399981,92.148 C2.20399981,93.8040083 2.44399741,95.3639927 2.92399981,96.828 C3.40400221,98.2920073 4.09999525,99.5699945 5.01199981,100.662 C5.92400437,101.754005 7.03999321,102.623997 8.35999981,103.272 C9.68000641,103.920003 11.1799914,104.244 12.8599998,104.244 C14.1080061,104.244 15.2779944,103.986003 16.3699998,103.47 C17.4620053,102.953997 18.4159957,102.270004 19.2319998,101.418 C20.0480039,100.565996 20.7019974,99.5820056 21.1939998,98.466 C21.6860023,97.3499944 21.9679995,96.192006 22.0399998,94.992 L23.6239998,94.992 C23.4799991,96.5280077 23.1020029,97.9439935 22.4899998,99.24 C21.8779968,100.536006 21.0980046,101.657995 20.1499998,102.606 C19.2019951,103.554005 18.1040061,104.291997 16.8559998,104.82 C15.6079936,105.348003 14.2760069,105.612 12.8599998,105.612 C10.9399902,105.612 9.21800743,105.264003 7.69399981,104.568 C6.16999219,103.871997 4.88600503,102.918006 3.84199981,101.706 C2.79799459,100.493994 2.00000257,99.0660082 1.44799981,97.422 C0.895997054,95.7779918 0.619999814,94.0200094 0.619999814,92.148 Z M26.0719999,79.296 L27.6559999,79.296 L27.6559999,90.96 L44.0719999,90.96 L44.0719999,79.296 L45.6559999,79.296 L45.6559999,105 L44.0719999,105 L44.0719999,92.328 L27.6559999,92.328 L27.6559999,105 L26.0719999,105 L26.0719999,79.296 Z M49.3279999,79.296 L60.0559999,79.296 C61.1840055,79.296 62.239995,79.4099989 63.2239999,79.638 C64.2080048,79.8660011 65.0719962,80.2379974 65.8159999,80.754 C66.5600036,81.2700026 67.1419978,81.9479958 67.5619999,82.788 C67.982002,83.6280042 68.1919999,84.6719938 68.1919999,85.92 C68.1919999,87.6480086 67.7060047,89.1059941 66.7339999,90.294 C65.761995,91.4820059 64.4120085,92.2199986 62.6839999,92.508 L62.6839999,92.58 C63.8600058,92.7240007 64.7899965,93.0359976 65.4739999,93.516 C66.1580033,93.9960024 66.6679982,94.5839965 67.0039999,95.28 C67.3400016,95.9760035 67.5559994,96.7439958 67.6519999,97.584 C67.7480004,98.4240042 67.7959999,99.2639958 67.7959999,100.104 L67.7959999,101.58 C67.7959999,102.060002 67.8199996,102.509998 67.8679999,102.93 C67.9160001,103.350002 67.9939993,103.739998 68.1019999,104.1 C68.2100004,104.460002 68.3599989,104.759999 68.5519999,105 L66.7879999,105 C66.4519982,104.399997 66.2660001,103.698004 66.2299999,102.894 C66.1939997,102.089996 66.1759999,101.256004 66.1759999,100.392 C66.1759999,99.5279957 66.1400002,98.6700043 66.0679999,97.818 C65.9959995,96.9659957 65.7680018,96.2040034 65.3839999,95.532 C64.999998,94.8599966 64.394004,94.320002 63.5659999,93.912 C62.7379957,93.503998 61.5680074,93.3 60.0559999,93.3 L50.9119999,93.3 L50.9119999,105 L49.3279999,105 L49.3279999,79.296 Z M60.0559999,91.932 C60.9920046,91.932 61.8619959,91.8180011 62.6659999,91.59 C63.4700039,91.3619989 64.159997,91.0080024 64.7359999,90.528 C65.3120028,90.0479976 65.7679982,89.4360037 66.1039999,88.692 C66.4400016,87.9479963 66.6079999,87.0600052 66.6079999,86.028 C66.6079999,85.0679952 66.4280017,84.2460034 66.0679999,83.562 C65.7079981,82.8779966 65.2280029,82.3200022 64.6279999,81.888 C64.0279969,81.4559978 63.3320038,81.144001 62.5399999,80.952 C61.7479959,80.759999 60.9200042,80.664 60.0559999,80.664 L50.9119999,80.664 L50.9119999,91.932 L60.0559999,91.932 Z M71.1439999,79.296 L72.7279999,79.296 L72.7279999,105 L71.1439999,105 L71.1439999,79.296 Z M93.176,86.64 C93.1279997,85.5359945 92.8940021,84.5760041 92.474,83.76 C92.0539979,82.9439959 91.4840036,82.2600028 90.764,81.708 C90.0439964,81.1559972 89.1860049,80.7420014 88.19,80.466 C87.193995,80.1899986 86.1080058,80.052 84.932,80.052 C84.2119964,80.052 83.4380041,80.1359992 82.61,80.304 C81.7819958,80.4720008 81.0140035,80.7659979 80.306,81.186 C79.5979964,81.6060021 79.0160022,82.1699965 78.56,82.878 C78.1039977,83.5860035 77.876,84.4679947 77.876,85.524 C77.876,86.5560052 78.1279974,87.3959968 78.632,88.044 C79.1360025,88.6920032 79.7959959,89.213998 80.612,89.61 C81.428004,90.006002 82.3639947,90.3239988 83.42,90.564 C84.4760052,90.8040012 85.5439946,91.0319989 86.624,91.248 C87.7280055,91.4640011 88.8019947,91.7219985 89.846,92.022 C90.8900052,92.3220015 91.8259958,92.7299974 92.654,93.246 C93.4820041,93.7620026 94.1479974,94.4339959 94.652,95.262 C95.1560025,96.0900041 95.408,97.1279938 95.408,98.376 C95.408,99.7200067 95.1200028,100.847995 94.544,101.76 C93.9679971,102.672005 93.2420043,103.415997 92.366,103.992 C91.4899956,104.568003 90.5180053,104.981999 89.45,105.234 C88.3819946,105.486001 87.3560049,105.612 86.372,105.612 C84.8599924,105.612 83.4440066,105.450002 82.124,105.126 C80.8039934,104.801998 79.6520049,104.274004 78.668,103.542 C77.683995,102.809996 76.9100028,101.868006 76.346,100.716 C75.7819971,99.5639942 75.5119998,98.1600083 75.536,96.504 L77.12,96.504 C77.0479996,97.9200071 77.2519976,99.1139951 77.732,100.086 C78.2120024,101.058005 78.8779957,101.855997 79.73,102.48 C80.5820042,103.104003 81.5839942,103.553999 82.736,103.83 C83.8880057,104.106001 85.0999936,104.244 86.372,104.244 C87.1400038,104.244 87.9619956,104.148001 88.838,103.956 C89.7140043,103.763999 90.5179963,103.440002 91.25,102.984 C91.9820036,102.527998 92.5939975,101.928004 93.086,101.184 C93.5780024,100.439996 93.824,99.5040056 93.824,98.376 C93.824,97.2959946 93.5720025,96.4140034 93.068,95.73 C92.5639974,95.0459966 91.8980041,94.4940021 91.07,94.074 C90.2419958,93.6539979 89.3060052,93.3180013 88.262,93.066 C87.2179947,92.8139987 86.1440055,92.5800011 85.04,92.364 C83.9599946,92.1479989 82.8920052,91.8960014 81.836,91.608 C80.7799947,91.3199986 79.844004,90.9300025 79.028,90.438 C78.2119959,89.9459975 77.5520025,89.3100039 77.048,88.53 C76.5439974,87.7499961 76.292,86.7480061 76.292,85.524 C76.292,84.2999939 76.5499974,83.2500044 77.066,82.374 C77.5820025,81.4979956 78.2539958,80.7900027 79.082,80.25 C79.9100041,79.7099973 80.8399948,79.3140013 81.872,79.062 C82.9040051,78.8099987 83.9239949,78.684 84.932,78.684 C86.2760067,78.684 87.5299941,78.8339985 88.694,79.134 C89.8580058,79.4340015 90.8779956,79.9019968 91.754,80.538 C92.6300043,81.1740032 93.3319973,81.995995 93.86,83.004 C94.3880026,84.012005 94.6879996,85.2239929 94.76,86.64 L93.176,86.64 Z M124.136,86.64 C124.088,85.5359945 123.854002,84.5760041 123.434,83.76 C123.013998,82.9439959 122.444004,82.2600028 121.724,81.708 C121.003996,81.1559972 120.146005,80.7420014 119.15,80.466 C118.153995,80.1899986 117.068006,80.052 115.892,80.052 C115.171996,80.052 114.398004,80.1359992 113.57,80.304 C112.741996,80.4720008 111.974004,80.7659979 111.266,81.186 C110.557996,81.6060021 109.976002,82.1699965 109.52,82.878 C109.063998,83.5860035 108.836,84.4679947 108.836,85.524 C108.836,86.5560052 109.087998,87.3959968 109.592,88.044 C110.096003,88.6920032 110.755996,89.213998 111.572,89.61 C112.388004,90.006002 113.323995,90.3239988 114.38,90.564 C115.436005,90.8040012 116.503995,91.0319989 117.584,91.248 C118.688006,91.4640011 119.761995,91.7219985 120.806,92.022 C121.850005,92.3220015 122.785996,92.7299974 123.614,93.246 C124.442004,93.7620026 125.107998,94.4339959 125.612,95.262 C126.116003,96.0900041 126.368,97.1279938 126.368,98.376 C126.368,99.7200067 126.080003,100.847995 125.504,101.76 C124.927997,102.672005 124.202004,103.415997 123.326,103.992 C122.449996,104.568003 121.478005,104.981999 120.41,105.234 C119.341995,105.486001 118.316005,105.612 117.332,105.612 C115.819992,105.612 114.404007,105.450002 113.084,105.126 C111.763993,104.801998 110.612005,104.274004 109.628,103.542 C108.643995,102.809996 107.870003,101.868006 107.306,100.716 C106.741997,99.5639942 106.472,98.1600083 106.496,96.504 L108.08,96.504 C108.008,97.9200071 108.211998,99.1139951 108.692,100.086 C109.172002,101.058005 109.837996,101.855997 110.69,102.48 C111.542004,103.104003 112.543994,103.553999 113.696,103.83 C114.848006,104.106001 116.059994,104.244 117.332,104.244 C118.100004,104.244 118.921996,104.148001 119.798,103.956 C120.674004,103.763999 121.477996,103.440002 122.21,102.984 C122.942004,102.527998 123.553998,101.928004 124.046,101.184 C124.538002,100.439996 124.784,99.5040056 124.784,98.376 C124.784,97.2959946 124.532003,96.4140034 124.028,95.73 C123.523998,95.0459966 122.858004,94.4940021 122.03,94.074 C121.201996,93.6539979 120.266005,93.3180013 119.222,93.066 C118.177995,92.8139987 117.104006,92.5800011 116,92.364 C114.919995,92.1479989 113.852005,91.8960014 112.796,91.608 C111.739995,91.3199986 110.804004,90.9300025 109.988,90.438 C109.171996,89.9459975 108.512003,89.3100039 108.008,88.53 C107.503998,87.7499961 107.252,86.7480061 107.252,85.524 C107.252,84.2999939 107.509997,83.2500044 108.026,82.374 C108.542003,81.4979956 109.213996,80.7900027 110.042,80.25 C110.870004,79.7099973 111.799995,79.3140013 112.832,79.062 C113.864005,78.8099987 114.883995,78.684 115.892,78.684 C117.236007,78.684 118.489994,78.8339985 119.654,79.134 C120.818006,79.4340015 121.837996,79.9019968 122.714,80.538 C123.590004,81.1740032 124.291997,81.995995 124.82,83.004 C125.348003,84.012005 125.648,85.2239929 125.72,86.64 L124.136,86.64 Z M129.176,79.296 L130.76,79.296 L130.76,90.96 L147.176,90.96 L147.176,79.296 L148.76,79.296 L148.76,105 L147.176,105 L147.176,92.328 L130.76,92.328 L130.76,105 L129.176,105 L129.176,79.296 Z M152.432,79.296 L154.016,79.296 L154.016,105 L152.432,105 L152.432,79.296 Z M157.688,79.296 L159.272,79.296 L159.272,90.96 L175.688,90.96 L175.688,79.296 L177.272,79.296 L177.272,105 L175.688,105 L175.688,92.328 L159.272,92.328 L159.272,105 L157.688,105 L157.688,79.296 Z" id="CHRIS-SHIH" fill="#000000"></path>
            <g id="logo-icon" transform="translate(57.000000, 0.000000)">
                <ellipse id="Oval" fill="#000000" cx="32" cy="32" rx="32" ry="32"></ellipse>
                <path d="M14.29,33.29 C14.29,31.7299922 14.5199977,30.2650068 14.98,28.895 C15.4400023,27.5249931 16.1049956,26.335005 16.975,25.325 C17.8450043,24.3149949 18.9149936,23.5200029 20.185,22.94 C21.4550063,22.3599971 22.889992,22.07 24.49,22.07 C25.7500063,22.07 26.8399954,22.2349983 27.76,22.565 C28.6800046,22.8950016 29.4549968,23.3049975 30.085,23.795 C30.7150031,24.2850024 31.229998,24.8199971 31.63,25.4 C32.030002,25.9800029 32.3349989,26.5249974 32.545,27.035 C32.755001,27.5450025 32.8999996,27.9849981 32.98,28.355 C33.0600004,28.7250018 33.1,28.9299998 33.1,28.97 L31.78,28.97 C31.6399993,28.0699955 31.3500022,27.2650035 30.91,26.555 C30.4699978,25.8449964 29.9200033,25.2400025 29.26,24.74 C28.5999967,24.2399975 27.865004,23.8600013 27.055,23.6 C26.2449959,23.3399987 25.3900045,23.21 24.49,23.21 C23.089993,23.21 21.8400055,23.4799973 20.74,24.02 C19.6399945,24.5600027 18.7100038,25.2849954 17.95,26.195 C17.1899962,27.1050045 16.610002,28.1699939 16.21,29.39 C15.809998,30.6100061 15.61,31.9099931 15.61,33.29 C15.61,34.6700069 15.809998,35.9699939 16.21,37.19 C16.610002,38.4100061 17.1899962,39.4749954 17.95,40.385 C18.7100038,41.2950045 19.6399945,42.0199973 20.74,42.56 C21.8400055,43.1000027 23.089993,43.37 24.49,43.37 C25.5300052,43.37 26.5049954,43.1550021 27.415,42.725 C28.3250045,42.2949978 29.1199966,41.7250035 29.8,41.015 C30.4800034,40.3049964 31.0249979,39.4850046 31.435,38.555 C31.845002,37.6249953 32.0799997,36.660005 32.14,35.66 L33.46,35.66 C33.3399994,36.9400064 33.0250025,38.1199946 32.515,39.2 C32.0049974,40.2800054 31.3550039,41.214996 30.565,42.005 C29.774996,42.7950039 28.8600052,43.4099978 27.82,43.85 C26.7799948,44.2900022 25.6700059,44.51 24.49,44.51 C22.889992,44.51 21.4550063,44.2200029 20.185,43.64 C18.9149936,43.0599971 17.8450043,42.265005 16.975,41.255 C16.1049956,40.2449949 15.4400023,39.0550068 14.98,37.685 C14.5199977,36.3149931 14.29,34.8500078 14.29,33.29 Z M49.48,28.7 C49.4399998,27.7799954 49.2450018,26.9800034 48.895,26.3 C48.5449983,25.6199966 48.070003,25.0500023 47.47,24.59 C46.869997,24.1299977 46.1550042,23.7850011 45.325,23.555 C44.4949959,23.3249988 43.5900049,23.21 42.61,23.21 C42.009997,23.21 41.3650035,23.2799993 40.675,23.42 C39.9849966,23.5600007 39.345003,23.8049982 38.755,24.155 C38.1649971,24.5050017 37.6800019,24.974997 37.3,25.565 C36.9199981,26.1550029 36.73,26.8899956 36.73,27.77 C36.73,28.6300043 36.9399979,29.3299973 37.36,29.87 C37.7800021,30.4100027 38.3299966,30.8449983 39.01,31.175 C39.6900034,31.5050016 40.4699956,31.769999 41.35,31.97 C42.2300044,32.170001 43.1199955,32.3599991 44.02,32.54 C44.9400046,32.7200009 45.8349957,32.9349987 46.705,33.185 C47.5750044,33.4350012 48.3549966,33.7749978 49.045,34.205 C49.7350035,34.6350021 50.2899979,35.1949965 50.71,35.885 C51.1300021,36.5750034 51.34,37.4399948 51.34,38.48 C51.34,39.6000056 51.1000024,40.5399962 50.62,41.3 C50.1399976,42.0600038 49.5350037,42.6799976 48.805,43.16 C48.0749964,43.6400024 47.2650045,43.9849989 46.375,44.195 C45.4849956,44.405001 44.6300041,44.51 43.81,44.51 C42.5499937,44.51 41.3700055,44.3750013 40.27,44.105 C39.1699945,43.8349986 38.2100041,43.395003 37.39,42.785 C36.5699959,42.1749969 35.9250024,41.3900048 35.455,40.43 C34.9849977,39.4699952 34.7599999,38.3000069 34.78,36.92 L36.1,36.92 C36.0399997,38.1000059 36.209998,39.0949959 36.61,39.905 C37.010002,40.715004 37.5649965,41.3799974 38.275,41.9 C38.9850036,42.4200026 39.8199952,42.7949988 40.78,43.025 C41.7400048,43.2550011 42.7499947,43.37 43.81,43.37 C44.4500032,43.37 45.1349964,43.2900008 45.865,43.13 C46.5950037,42.9699992 47.264997,42.7000019 47.875,42.32 C48.4850031,41.9399981 48.994998,41.4400031 49.405,40.82 C49.8150021,40.1999969 50.02,39.4200047 50.02,38.48 C50.02,37.5799955 49.8100021,36.8450028 49.39,36.275 C48.9699979,35.7049971 48.4150035,35.2450017 47.725,34.895 C47.0349966,34.5449982 46.2550044,34.265001 45.385,34.055 C44.5149957,33.8449989 43.6200046,33.6500009 42.7,33.47 C41.7999955,33.2899991 40.9100044,33.0800012 40.03,32.84 C39.1499956,32.5999988 38.3700034,32.275002 37.69,31.865 C37.0099966,31.4549979 36.4600021,30.9250032 36.04,30.275 C35.6199979,29.6249967 35.41,28.7900051 35.41,27.77 C35.41,26.7499949 35.6249979,25.8750036 36.055,25.145 C36.4850022,24.4149963 37.0449966,23.8250022 37.735,23.375 C38.4250035,22.9249977 39.1999957,22.595001 40.06,22.385 C40.9200043,22.1749989 41.7699958,22.07 42.61,22.07 C43.7300056,22.07 44.7749952,22.1949987 45.745,22.445 C46.7150049,22.6950012 47.5649964,23.0849973 48.295,23.615 C49.0250037,24.1450026 49.6099978,24.8299958 50.05,25.67 C50.4900022,26.5100042 50.7399997,27.5199941 50.8,28.7 L49.48,28.7 Z" id="CS" fill="#FFFFFF"></path>
            </g>
        </g>
    </g>
</svg>